<?xml version="1.0" encoding="utf-8"?>
<!-- Generator: Adobe Illustrator 16.0.0, SVG Export Plug-In . SVG Version: 6.00 Build 0)  -->
<!DOCTYPE svg PUBLIC "-//W3C//DTD SVG 1.1//EN" "http://www.w3.org/Graphics/SVG/1.1/DTD/svg11.dtd">
<svg version="1.1" id="Layer_1" xmlns="http://www.w3.org/2000/svg" xmlns:xlink="http://www.w3.org/1999/xlink" x="0px" y="0px"
	 width="234.816px" height="69.584px" viewBox="8.593 37.207 234.816 69.584" enable-background="new 8.593 37.207 234.816 69.584"
	 xml:space="preserve">
<g>
	<rect x="97.767" y="89.861" fill="#FFFFFF" width="2.536" height="2.308"/>
	<rect x="169.779" y="89.861" fill="#FFFFFF" width="2.535" height="2.308"/>
	<g>
		<path fill="#FFFFFF" d="M15.604,92.617c0.343,0.287,0.514,0.767,0.514,1.439c0,0.672-0.171,1.163-0.514,1.474
			c-0.342,0.31-0.823,0.466-1.44,0.466h-2.435v-3.811h2.435C14.78,92.188,15.261,92.329,15.604,92.617z M18.803,94.04
			c0-1.397-0.382-2.433-1.142-3.101c-0.762-0.666-1.783-1-3.063-1H9.043v12.938h2.685v-4.652h2.694c1.405,0,2.485-0.315,3.243-0.945
			C18.423,96.646,18.803,95.564,18.803,94.04z"/>
		<path fill="#FFFFFF" d="M27.646,102.302c-0.707,0.601-1.8,0.9-3.276,0.9c-1.508,0-2.619-0.318-3.337-0.953
			c-0.72-0.635-1.078-1.442-1.078-2.426h2.536c0.053,0.442,0.167,0.76,0.345,0.948c0.312,0.334,0.887,0.498,1.728,0.498
			c0.494,0,0.887-0.072,1.177-0.218c0.292-0.147,0.437-0.366,0.437-0.659c0-0.281-0.117-0.494-0.352-0.641
			c-0.235-0.146-1.106-0.396-2.617-0.756c-1.086-0.268-1.853-0.605-2.296-1.01c-0.446-0.397-0.667-0.971-0.667-1.719
			c0-0.884,0.347-1.644,1.041-2.277c0.696-0.637,1.673-0.952,2.934-0.952c1.196,0,2.171,0.235,2.924,0.715
			c0.755,0.478,1.188,1.3,1.298,2.472H25.94c-0.035-0.324-0.125-0.578-0.272-0.766c-0.277-0.338-0.747-0.509-1.41-0.509
			c-0.544,0-0.933,0.085-1.166,0.255c-0.23,0.171-0.347,0.368-0.347,0.597c0,0.288,0.123,0.494,0.369,0.624
			c0.248,0.135,1.118,0.364,2.613,0.693c0.997,0.232,1.743,0.589,2.239,1.061c0.492,0.48,0.738,1.08,0.738,1.801
			C28.705,100.93,28.351,101.702,27.646,102.302z"/>
		<path fill="#FFFFFF" d="M35.57,102.719c-0.632,1.813-1.135,2.94-1.504,3.375c-0.369,0.438-1.106,0.654-2.213,0.654
			c-0.224,0-0.402-0.002-0.536-0.005c-0.136-0.004-0.338-0.013-0.606-0.03v-2.003l0.314,0.019c0.246,0.014,0.481,0.004,0.703-0.026
			c0.222-0.028,0.411-0.097,0.562-0.199c0.147-0.103,0.283-0.308,0.408-0.624c0.125-0.314,0.18-0.509,0.163-0.579l-3.515-9.987
			h2.782l2.09,7.057l1.974-7.057h2.659L35.57,102.719z"/>
		<path fill="#FFFFFF" d="M42.429,99.911c0.299,0.795,0.863,1.194,1.691,1.194c0.586,0,1.001-0.158,1.249-0.476
			c0.246-0.315,0.395-0.728,0.448-1.229h2.554c-0.057,0.761-0.334,1.479-0.826,2.158c-0.784,1.096-1.947,1.644-3.486,1.644
			c-1.542,0-2.674-0.457-3.401-1.37c-0.727-0.911-1.089-2.096-1.089-3.551c0-1.641,0.402-2.918,1.203-3.831
			c0.802-0.911,1.91-1.367,3.322-1.367c1.199,0,2.182,0.269,2.946,0.808s1.216,1.488,1.357,2.853h-2.562
			c-0.046-0.357-0.167-0.679-0.36-0.966c-0.283-0.387-0.72-0.579-1.311-0.579c-0.845,0-1.422,0.419-1.734,1.256
			c-0.165,0.442-0.246,1.03-0.246,1.767C42.184,98.921,42.265,99.484,42.429,99.911z"/>
		<path fill="#FFFFFF" d="M58.521,102.877h-2.553v-5.825c0-0.516-0.088-0.933-0.261-1.249c-0.226-0.443-0.657-0.667-1.289-0.667
			c-0.656,0-1.155,0.222-1.495,0.663c-0.34,0.443-0.509,1.073-0.509,1.895v5.185h-2.501V89.984h2.501v4.562
			c0.36-0.556,0.779-0.94,1.253-1.161c0.475-0.22,0.975-0.328,1.5-0.328c0.588,0,1.122,0.103,1.603,0.307
			c0.481,0.203,0.876,0.519,1.184,0.939c0.263,0.357,0.424,0.725,0.48,1.102c0.06,0.379,0.088,0.996,0.088,1.85L58.521,102.877
			L58.521,102.877z"/>
		<path fill="#FFFFFF" d="M66.636,95.896c0.391,0.516,0.588,1.252,0.588,2.211s-0.198,1.695-0.588,2.217
			c-0.393,0.521-0.953,0.781-1.687,0.781c-0.731,0-1.293-0.262-1.688-0.781c-0.395-0.521-0.593-1.258-0.593-2.217
			s0.198-1.695,0.593-2.211c0.396-0.52,0.958-0.777,1.688-0.777C65.683,95.118,66.243,95.377,66.636,95.896z M69.848,98.105
			c0-1.379-0.404-2.572-1.212-3.586c-0.806-1.012-2.033-1.517-3.678-1.517c-1.642,0-2.87,0.505-3.678,1.517
			c-0.806,1.014-1.209,2.207-1.209,3.586c0,1.402,0.404,2.604,1.209,3.602c0.808,0.996,2.036,1.495,3.678,1.495
			c1.645,0,2.872-0.499,3.678-1.495C69.444,100.71,69.848,99.509,69.848,98.105z"/>
		<rect x="71.477" y="89.939" fill="#FFFFFF" width="2.501" height="12.938"/>
		<path fill="#FFFFFF" d="M82.178,95.896c0.391,0.516,0.589,1.252,0.589,2.211s-0.198,1.695-0.589,2.217
			c-0.393,0.521-0.953,0.781-1.686,0.781c-0.731,0-1.293-0.262-1.688-0.781c-0.395-0.521-0.593-1.258-0.593-2.217
			s0.198-1.695,0.593-2.211c0.396-0.52,0.958-0.777,1.688-0.777C81.225,95.118,81.785,95.377,82.178,95.896z M85.39,98.105
			c0-1.379-0.404-2.572-1.212-3.586c-0.806-1.012-2.033-1.517-3.678-1.517c-1.642,0-2.87,0.505-3.678,1.517
			c-0.806,1.014-1.209,2.207-1.209,3.586c0,1.402,0.404,2.604,1.209,3.602c0.808,0.996,2.036,1.495,3.678,1.495
			c1.645,0,2.872-0.499,3.678-1.495C84.986,100.71,85.39,99.509,85.39,98.105z"/>
		<path fill="#FFFFFF" d="M92.581,95.979c0.382,0.476,0.573,1.164,0.573,2.07c0,0.967-0.202,1.671-0.604,2.112
			c-0.402,0.44-0.894,0.663-1.478,0.663c-0.874,0-1.48-0.404-1.818-1.213c-0.187-0.432-0.279-0.926-0.279-1.483
			c0-0.644,0.088-1.185,0.261-1.622c0.333-0.826,0.935-1.238,1.812-1.238C91.687,95.268,92.199,95.504,92.581,95.979z M95.61,93.311
			h-2.439v1.377c-0.375-0.672-0.865-1.135-1.473-1.386c-0.356-0.146-0.773-0.219-1.254-0.219c-1.297,0-2.299,0.481-3.006,1.451
			s-1.061,2.164-1.061,3.585c0,1.476,0.367,2.645,1.103,3.507c0.733,0.862,1.715,1.295,2.944,1.295c0.794,0,1.442-0.19,1.938-0.571
			c0.274-0.203,0.534-0.511,0.773-0.922v0.615c0,0.913-0.099,1.562-0.299,1.949c-0.305,0.602-0.907,0.902-1.809,0.902
			c-0.637,0-1.091-0.115-1.359-0.34c-0.158-0.131-0.272-0.342-0.343-0.634h-2.72c0.081,0.953,0.509,1.671,1.28,2.149
			c0.772,0.48,1.77,0.721,2.995,0.721c2.024,0,3.392-0.538,4.105-1.616c0.417-0.626,0.624-1.557,0.624-2.791L95.61,93.311
			L95.61,93.311z"/>
		<rect x="97.767" y="93.311" fill="#FFFFFF" width="2.536" height="9.566"/>
		<path fill="#FFFFFF" d="M104.828,99.911c0.298,0.795,0.863,1.194,1.69,1.194c0.586,0,1.001-0.158,1.25-0.476
			c0.246-0.315,0.395-0.728,0.448-1.229h2.553c-0.057,0.761-0.333,1.479-0.825,2.158c-0.784,1.096-1.948,1.644-3.487,1.644
			c-1.541,0-2.674-0.457-3.401-1.37c-0.727-0.911-1.089-2.096-1.089-3.551c0-1.641,0.402-2.918,1.203-3.831
			c0.801-0.911,1.91-1.367,3.322-1.367c1.199,0,2.183,0.269,2.947,0.808s1.216,1.488,1.356,2.853h-2.562
			c-0.046-0.357-0.167-0.679-0.36-0.966c-0.283-0.387-0.72-0.579-1.311-0.579c-0.845,0-1.423,0.419-1.734,1.256
			c-0.165,0.442-0.246,1.03-0.246,1.767C104.582,98.921,104.663,99.484,104.828,99.911z"/>
		<path fill="#FFFFFF" d="M117.122,98.466c0.163-0.062,0.325-0.141,0.487-0.241v0.932c-0.017,0.837-0.259,1.414-0.72,1.73
			c-0.457,0.312-0.962,0.471-1.511,0.471c-0.342,0-0.637-0.094-0.874-0.282c-0.241-0.19-0.364-0.5-0.364-0.927
			c0-0.48,0.198-0.834,0.593-1.062c0.233-0.134,0.615-0.248,1.15-0.342l0.566-0.105C116.735,98.585,116.959,98.527,117.122,98.466z
			 M120.635,102.508c-0.163-0.074-0.285-0.171-0.369-0.289c-0.079-0.117-0.132-0.339-0.149-0.668
			c-0.009-0.433-0.018-0.802-0.018-1.104v-4.389c0-1.152-0.408-1.938-1.225-2.353c-0.816-0.417-1.748-0.623-2.801-0.623
			c-1.616,0-2.758,0.421-3.421,1.263c-0.417,0.539-0.65,1.228-0.703,2.063h2.411c0.061-0.369,0.18-0.661,0.355-0.879
			c0.25-0.292,0.676-0.438,1.273-0.438c0.536,0,0.94,0.074,1.216,0.225c0.272,0.148,0.413,0.418,0.413,0.812
			c0,0.322-0.18,0.558-0.54,0.711c-0.202,0.088-0.536,0.16-1.001,0.22l-0.856,0.105c-0.97,0.123-1.708,0.327-2.208,0.611
			c-0.914,0.527-1.37,1.38-1.37,2.557c0,0.907,0.281,1.607,0.852,2.102c0.567,0.494,1.287,0.742,2.156,0.742
			c0.685,0,1.295-0.156,1.835-0.466c0.457-0.265,0.856-0.582,1.203-0.957c0.018,0.218,0.04,0.41,0.07,0.579
			c0.026,0.17,0.079,0.352,0.158,0.545h2.718L120.635,102.508L120.635,102.508z"/>
		<rect x="122.123" y="89.939" fill="#FFFFFF" width="2.503" height="12.938"/>
		<path fill="#FFFFFF" d="M140.553,102.038c-0.912,0.782-2.203,1.173-3.867,1.173c-1.705,0-3.043-0.385-4.022-1.154
			c-0.976-0.77-1.462-1.826-1.462-3.174h2.581c0.084,0.592,0.245,1.034,0.491,1.326c0.449,0.531,1.218,0.8,2.302,0.8
			c0.653,0,1.182-0.069,1.59-0.211c0.769-0.271,1.155-0.771,1.155-1.502c0-0.426-0.189-0.758-0.566-0.991
			c-0.378-0.229-0.977-0.432-1.797-0.604l-1.4-0.308c-1.373-0.307-2.322-0.638-2.836-0.992c-0.873-0.599-1.31-1.53-1.31-2.801
			c0-1.158,0.427-2.121,1.278-2.887c0.855-0.77,2.106-1.15,3.758-1.15c1.384,0,2.561,0.359,3.535,1.084
			c0.971,0.724,1.483,1.771,1.533,3.146h-2.601c-0.049-0.779-0.396-1.333-1.045-1.66c-0.431-0.215-0.966-0.324-1.606-0.324
			c-0.717,0-1.287,0.141-1.714,0.422c-0.426,0.28-0.637,0.674-0.637,1.177c0,0.461,0.211,0.809,0.628,1.034
			c0.271,0.154,0.844,0.332,1.723,0.535l2.271,0.535c0.991,0.235,1.737,0.547,2.233,0.94c0.773,0.606,1.16,1.487,1.16,2.641
			C141.928,100.275,141.471,101.257,140.553,102.038z"/>
		<path fill="#FFFFFF" d="M148.87,95.634c0.399,0.345,0.618,0.849,0.667,1.513h-4.312c0.094-0.623,0.316-1.116,0.668-1.481
			c0.355-0.364,0.853-0.546,1.494-0.546C147.979,95.118,148.471,95.291,148.87,95.634z M145.164,98.796h6.969
			c0.014-0.826-0.014-1.458-0.084-1.899c-0.113-0.748-0.369-1.406-0.76-1.977c-0.436-0.646-0.988-1.117-1.655-1.416
			s-1.418-0.447-2.247-0.447c-1.402,0-2.544,0.44-3.422,1.326c-0.878,0.885-1.316,2.155-1.316,3.811
			c0,1.771,0.482,3.047,1.457,3.832c0.976,0.783,2.1,1.178,3.373,1.178c1.541,0,2.739-0.467,3.597-1.396
			c0.553-0.584,0.86-1.16,0.927-1.728h-2.552c-0.149,0.28-0.32,0.5-0.515,0.657c-0.359,0.293-0.82,0.438-1.392,0.438
			c-0.536,0-0.997-0.117-1.379-0.357C145.537,100.43,145.203,99.755,145.164,98.796z"/>
		<path fill="#FFFFFF" d="M158.71,95.662c-0.158-0.018-0.298-0.028-0.421-0.035c-0.123-0.006-0.221-0.009-0.299-0.009
			c-1.006,0-1.682,0.327-2.024,0.983c-0.192,0.368-0.29,0.936-0.29,1.701v4.573h-2.521v-9.565h2.39v1.666
			c0.388-0.637,0.722-1.074,1.011-1.307c0.465-0.393,1.075-0.588,1.822-0.588c0.048,0,0.088,0.002,0.118,0.004
			c0.034,0.002,0.104,0.007,0.215,0.014V95.662z"/>
		<polygon fill="#FFFFFF" points="165.086,102.877 162.447,102.877 159.018,93.311 161.828,93.311 163.82,100.367 165.854,93.311 
			168.542,93.311 		"/>
		<rect x="169.779" y="93.311" fill="#FFFFFF" width="2.535" height="9.566"/>
		<path fill="#FFFFFF" d="M176.837,99.911c0.3,0.795,0.865,1.194,1.69,1.194c0.589,0,1-0.158,1.252-0.476
			c0.246-0.315,0.395-0.728,0.447-1.229h2.551c-0.057,0.761-0.334,1.479-0.824,2.158c-0.782,1.096-1.945,1.644-3.487,1.644
			c-1.541,0-2.674-0.457-3.397-1.37c-0.729-0.911-1.09-2.096-1.09-3.551c0-1.641,0.399-2.918,1.203-3.831
			c0.799-0.911,1.91-1.367,3.319-1.367c1.199,0,2.183,0.269,2.946,0.808c0.765,0.539,1.217,1.488,1.357,2.853h-2.562
			c-0.048-0.357-0.166-0.679-0.359-0.966c-0.286-0.387-0.721-0.579-1.313-0.579c-0.842,0-1.422,0.419-1.733,1.256
			c-0.162,0.442-0.246,1.03-0.246,1.767C176.591,98.921,176.675,99.484,176.837,99.911z"/>
		<path fill="#FFFFFF" d="M189.77,95.634c0.399,0.345,0.623,0.849,0.668,1.513h-4.309c0.088-0.623,0.312-1.116,0.667-1.481
			c0.353-0.364,0.849-0.546,1.493-0.546C188.878,95.118,189.374,95.291,189.77,95.634z M186.066,98.796h6.97
			c0.009-0.826-0.019-1.458-0.084-1.899c-0.118-0.748-0.373-1.406-0.765-1.977c-0.435-0.646-0.982-1.117-1.65-1.416
			c-0.667-0.299-1.418-0.447-2.252-0.447c-1.401,0-2.543,0.44-3.422,1.326c-0.879,0.885-1.316,2.155-1.316,3.811
			c0,1.771,0.487,3.047,1.462,3.832c0.972,0.783,2.095,1.178,3.368,1.178c1.541,0,2.74-0.467,3.602-1.396
			c0.549-0.584,0.855-1.16,0.926-1.728h-2.555c-0.149,0.28-0.32,0.5-0.515,0.657c-0.354,0.293-0.821,0.438-1.388,0.438
			c-0.54,0-0.997-0.117-1.379-0.357C186.439,100.43,186.105,99.755,186.066,98.796z"/>
		<path fill="#FFFFFF" d="M201.177,102.302c-0.706,0.601-1.8,0.9-3.274,0.9c-1.506,0-2.617-0.318-3.338-0.953
			s-1.076-1.442-1.076-2.426h2.533c0.054,0.442,0.168,0.76,0.349,0.948c0.312,0.334,0.887,0.498,1.726,0.498
			c0.496,0,0.887-0.072,1.178-0.218c0.293-0.147,0.438-0.366,0.438-0.659c0-0.281-0.119-0.494-0.353-0.641
			c-0.236-0.146-1.105-0.396-2.616-0.756c-1.089-0.268-1.854-0.605-2.298-1.01c-0.446-0.397-0.666-0.971-0.666-1.719
			c0-0.884,0.347-1.644,1.039-2.277c0.695-0.637,1.675-0.952,2.935-0.952c1.194,0,2.169,0.235,2.925,0.715
			c0.756,0.478,1.186,1.3,1.295,2.472h-2.498c-0.035-0.324-0.127-0.578-0.271-0.766c-0.276-0.338-0.746-0.509-1.409-0.509
			c-0.545,0-0.937,0.085-1.169,0.255c-0.229,0.171-0.348,0.368-0.348,0.597c0,0.288,0.123,0.494,0.369,0.624
			c0.25,0.135,1.121,0.364,2.612,0.693c0.997,0.232,1.744,0.589,2.24,1.061c0.491,0.48,0.737,1.08,0.737,1.801
			C202.234,100.93,201.884,101.702,201.177,102.302z"/>
		<path fill="#FFFFFF" d="M206.438,102.523c0,0.398-0.053,0.813-0.158,1.248c-0.104,0.434-0.303,0.81-0.588,1.123
			c-0.312,0.34-0.676,0.598-1.094,0.769c-0.416,0.174-0.707,0.259-0.865,0.259v-0.966c0.506-0.142,0.875-0.373,1.111-0.7
			c0.237-0.329,0.373-0.788,0.408-1.379h-1.52v-2.624h2.705V102.523L206.438,102.523z"/>
		<polygon fill="#FFFFFF" points="220.199,102.877 211.04,102.877 211.04,89.939 213.74,89.939 213.74,100.552 220.199,100.552 		
			"/>
		<polygon fill="#FFFFFF" points="230.967,102.877 221.803,102.877 221.803,89.939 224.508,89.939 224.508,100.552 230.967,100.552 
					"/>
		<path fill="#FFFFFF" d="M235.652,99.818c0.584,0.723,1.33,1.084,2.233,1.084c0.927,0,1.634-0.312,2.121-0.93
			c0.269-0.334,0.492-0.836,0.668-1.503h2.688c-0.233,1.411-0.826,2.558-1.774,3.44c-0.953,0.885-2.174,1.326-3.662,1.326
			c-1.84,0-3.288-0.598-4.343-1.793c-1.05-1.197-1.576-2.842-1.576-4.93c0-2.261,0.598-4.002,1.797-5.225
			c1.039-1.064,2.365-1.598,3.979-1.598c2.15,0,3.728,0.715,4.72,2.143c0.554,0.801,0.849,1.605,0.888,2.415h-2.705
			c-0.172-0.622-0.391-1.09-0.658-1.405c-0.482-0.562-1.198-0.844-2.144-0.844c-0.962,0-1.722,0.396-2.278,1.189
			c-0.554,0.793-0.834,1.914-0.834,3.367C234.77,98.01,235.062,99.098,235.652,99.818z"/>
	</g>
	<g>
		<circle fill="#FFFFFF" cx="101.157" cy="42.46" r="5.253"/>
		<g>
			<polygon fill="#FFFFFF" points="117.815,56.95 117.815,49.902 144.004,49.902 144.004,57.099 127.753,75.909 144.584,75.909 
				144.584,83.018 116.661,83.018 116.661,76.273 133.075,56.95 			"/>
			<path fill="#FFFFFF" d="M56.082,38.384h8.659v15.799c1.25-1.923,2.697-3.267,4.341-4.024c1.642-0.762,3.375-1.14,5.19-1.14
				c2.035,0,3.886,0.354,5.548,1.062c1.666,0.711,3.031,1.794,4.102,3.256c0.907,1.236,1.463,2.509,1.663,3.818
				c0.202,1.307,0.302,3.439,0.302,6.397v19.463h-8.839V62.852c0-1.785-0.304-3.228-0.907-4.321
				c-0.783-1.539-2.272-2.312-4.462-2.312c-2.272,0-3.995,0.769-5.173,2.299c-1.177,1.53-1.764,3.715-1.764,6.554v17.945h-8.659
				L56.082,38.384L56.082,38.384z"/>
			<path fill="#FFFFFF" d="M31.076,57.736v-0.002c0.472-0.108,0.886-0.25,1.235-0.422c1.769-0.85,2.655-2.531,2.655-5.043
				c0-2.714-0.856-4.536-2.57-5.469c-0.959-0.525-2.403-0.788-4.327-0.788H17.738v12.029v24.977H8.593V38.23h21.42
				c3.062,0.063,5.421,0.446,7.068,1.155c1.65,0.711,3.046,1.754,4.192,3.129c0.949,1.135,1.7,2.393,2.252,3.77
				c0.555,1.379,0.829,2.949,0.829,4.708c0,2.13-0.536,4.222-1.609,6.275c-1.075,2.057-2.847,3.511-5.318,4.363
				c2.066,0.83,3.532,2.009,4.391,3.539c0.861,1.528,1.291,3.864,1.291,7.006v3.007c0,2.047,0.063,3.438,0.246,4.162
				c0.276,1.09,0.529,1.363,0.777,1.721c0.313,0.354,0.684,0.752,0.952,0.83v1.125H34.753c-0.283-0.99-0.485-1.793-0.605-2.399
				c-0.244-1.256-0.377-2.545-0.397-3.856l-0.06-4.166c-0.041-2.854-0.532-4.758-1.481-5.713c-0.949-0.951-1.861-1.985-4.246-4.058
				c-1.864-1.642-3.564-3.572-5.322-5.39c-0.404-0.421-0.754-0.911-1.095-1.401c-1.485-2.138-0.579-5.159,1.053-6.944
				c1.559-1.702,3.609-1.344,4.895-0.67c0.674,0.356,1.809,1.087,2.296,1.935c0.602,1.045,0.721,2.411,0.052,3.506
				c-0.82,1.375-3.011,1.243-3.364,1.209c-0.623-0.057-1.166-0.074-2.038-0.472C26.332,57.749,28.58,58.507,31.076,57.736z"/>
			<rect x="96.882" y="49.902" fill="#FFFFFF" width="8.782" height="33.116"/>
			<path fill="#FFFFFF" d="M163.55,73.057c-1.366-1.8-2.051-4.357-2.051-7.676c0-3.318,0.685-5.871,2.051-7.66
				c1.369-1.792,3.319-2.688,5.849-2.688c2.533,0,4.479,0.896,5.836,2.688c1.356,1.789,2.037,4.343,2.037,7.66
				c0,3.317-0.681,5.875-2.037,7.676s-3.303,2.7-5.836,2.7C166.869,75.757,164.919,74.857,163.55,73.057z M152.506,65.381
				c0,4.857,1.396,9.012,4.193,12.462c2.793,3.452,7.039,5.175,12.729,5.175c5.695,0,9.938-1.723,12.73-5.175
				c2.797-3.45,4.197-7.605,4.197-12.462c0-4.775-1.4-8.916-4.197-12.418c-2.793-3.5-7.035-5.25-12.73-5.25
				c-5.689,0-9.937,1.75-12.729,5.25C153.902,56.465,152.506,60.605,152.506,65.381z"/>
			<path fill="#FFFFFF" d="M243.346,83.018h-8.875V61.932c0-1.256-0.201-2.29-0.604-3.1c-0.769-1.539-2.188-2.308-4.251-2.308
				c-2.395,0-4.045,0.99-4.958,2.977c-0.466,1.052-0.698,2.319-0.698,3.798v19.719h-8.716V63.299c0-1.965-0.207-3.394-0.61-4.283
				c-0.729-1.601-2.16-2.402-4.285-2.402c-2.473,0-4.133,0.801-4.984,2.402c-0.465,0.911-0.697,2.268-0.697,4.07v19.932h-8.782
				V49.959h8.417v4.833c1.076-1.721,2.092-2.949,3.039-3.675c1.682-1.3,3.859-1.947,6.534-1.947c2.533,0,4.58,0.56,6.135,1.673
				c1.261,1.032,2.208,2.358,2.858,3.98c1.133-1.945,2.542-3.375,4.224-4.286c1.783-0.911,3.769-1.368,5.955-1.368
				c1.458,0,2.897,0.285,4.315,0.852c1.418,0.569,2.705,1.561,3.859,2.978c0.932,1.155,1.561,2.575,1.881,4.255
				c0.205,1.113,0.308,2.745,0.308,4.89L243.346,83.018z"/>
		</g>
	</g>
</g>
</svg>
