<?xml version="1.0" encoding="utf-8"?>
<!-- Generator: Adobe Illustrator 16.0.0, SVG Export Plug-In . SVG Version: 6.00 Build 0)  -->
<!DOCTYPE svg PUBLIC "-//W3C//DTD SVG 1.1//EN" "http://www.w3.org/Graphics/SVG/1.1/DTD/svg11.dtd">
<svg version="1.1" id="Layer_1" xmlns="http://www.w3.org/2000/svg" xmlns:xlink="http://www.w3.org/1999/xlink" x="0px" y="0px"
	 width="234.818px" height="45.812px" viewBox="-0.748 80.001 234.818 45.812"
	 enable-background="new -0.748 80.001 234.818 45.812" xml:space="preserve">
<g>
	<circle fill="#FFFFFF" cx="91.816" cy="85.254" r="5.253"/>
	<g>
		<polygon fill="#FFFFFF" points="108.474,99.743 108.474,92.694 134.663,92.694 134.663,99.892 118.412,118.702 135.243,118.702 
			135.243,125.812 107.32,125.812 107.32,119.065 123.734,99.743 		"/>
		<path fill="#FFFFFF" d="M46.741,81.177H55.4v15.799c1.25-1.922,2.697-3.266,4.341-4.023c1.643-0.762,3.375-1.141,5.19-1.141
			c2.035,0,3.886,0.355,5.548,1.062c1.666,0.711,3.031,1.795,4.102,3.256c0.907,1.236,1.463,2.51,1.663,3.818
			c0.202,1.307,0.303,3.439,0.303,6.396v19.463h-8.84v-20.162c0-1.785-0.304-3.229-0.906-4.32c-0.783-1.539-2.272-2.312-4.462-2.312
			c-2.272,0-3.995,0.768-5.174,2.299c-1.177,1.529-1.764,3.715-1.764,6.555v17.943h-8.659L46.741,81.177L46.741,81.177z"/>
		<path fill="#FFFFFF" d="M21.735,100.528v-0.002c0.472-0.107,0.886-0.25,1.235-0.422c1.769-0.85,2.654-2.529,2.654-5.043
			c0-2.713-0.855-4.535-2.569-5.469c-0.959-0.525-2.403-0.787-4.327-0.787H8.397v12.029v24.977h-9.146V81.022h21.421
			c3.062,0.064,5.421,0.447,7.067,1.156c1.65,0.711,3.046,1.754,4.192,3.129c0.949,1.135,1.7,2.393,2.252,3.77
			c0.555,1.379,0.829,2.949,0.829,4.709c0,2.129-0.536,4.221-1.609,6.273c-1.075,2.059-2.847,3.512-5.318,4.363
			c2.066,0.83,3.532,2.01,4.392,3.539c0.861,1.529,1.291,3.865,1.291,7.006v3.008c0,2.047,0.062,3.438,0.246,4.162
			c0.275,1.09,0.528,1.363,0.776,1.721c0.313,0.354,0.685,0.752,0.952,0.83v1.125H25.412c-0.282-0.99-0.484-1.793-0.604-2.398
			c-0.244-1.256-0.377-2.545-0.397-3.857l-0.06-4.166c-0.041-2.854-0.532-4.758-1.481-5.713c-0.948-0.951-1.86-1.984-4.246-4.057
			c-1.863-1.643-3.563-3.572-5.321-5.391c-0.404-0.422-0.754-0.912-1.096-1.4c-1.484-2.139-0.579-5.16,1.054-6.945
			c1.559-1.701,3.608-1.344,4.895-0.67c0.674,0.355,1.81,1.088,2.296,1.936c0.603,1.045,0.722,2.41,0.052,3.506
			c-0.819,1.375-3.011,1.242-3.363,1.209c-0.623-0.057-1.166-0.074-2.038-0.473C16.991,100.542,19.239,101.3,21.735,100.528z"/>
		<rect x="87.541" y="92.694" fill="#FFFFFF" width="8.782" height="33.117"/>
		<path fill="#FFFFFF" d="M154.209,115.851c-1.365-1.801-2.051-4.357-2.051-7.676s0.686-5.871,2.051-7.66
			c1.369-1.793,3.319-2.688,5.85-2.688c2.533,0,4.479,0.895,5.836,2.688c1.355,1.789,2.037,4.342,2.037,7.66
			c0,3.316-0.682,5.875-2.037,7.676c-1.356,1.801-3.303,2.699-5.836,2.699C157.528,118.55,155.578,117.649,154.209,115.851z
			 M143.165,108.175c0,4.855,1.396,9.012,4.193,12.461c2.793,3.453,7.039,5.176,12.729,5.176c5.694,0,9.938-1.723,12.729-5.176
			c2.797-3.449,4.197-7.605,4.197-12.461c0-4.775-1.4-8.916-4.197-12.418c-2.793-3.5-7.035-5.25-12.729-5.25
			c-5.689,0-9.938,1.75-12.729,5.25C144.561,99.259,143.165,103.397,143.165,108.175z"/>
		<path fill="#FFFFFF" d="M234.006,125.812h-8.875v-21.086c0-1.256-0.201-2.291-0.604-3.1c-0.769-1.539-2.188-2.309-4.251-2.309
			c-2.395,0-4.045,0.99-4.958,2.977c-0.466,1.053-0.698,2.318-0.698,3.799v19.719h-8.716v-19.719c0-1.965-0.207-3.395-0.61-4.283
			c-0.729-1.602-2.159-2.402-4.284-2.402c-2.474,0-4.134,0.801-4.984,2.402c-0.465,0.91-0.697,2.268-0.697,4.07v19.932h-8.782
			V92.753h8.417v4.832c1.076-1.721,2.093-2.949,3.039-3.674c1.683-1.301,3.859-1.947,6.534-1.947c2.533,0,4.58,0.559,6.135,1.672
			c1.262,1.033,2.208,2.359,2.858,3.98c1.133-1.945,2.542-3.375,4.224-4.285c1.783-0.912,3.77-1.369,5.955-1.369
			c1.458,0,2.897,0.285,4.315,0.852c1.418,0.57,2.705,1.562,3.859,2.979c0.932,1.154,1.561,2.576,1.881,4.256
			c0.205,1.113,0.308,2.744,0.308,4.889L234.006,125.812z"/>
	</g>
</g>
</svg>
